<?xml version="1.0" encoding="UTF-8"?>
<svg width="244px" height="32px" viewBox="0 0 244 32" version="1.1" xmlns="http://www.w3.org/2000/svg" xmlns:xlink="http://www.w3.org/1999/xlink">
    <title>threenow-logo-vftv</title>
    <g id="threenow-logo-vftv" stroke="none" stroke-width="1" fill="none" fill-rule="evenodd">
        <g id="ThreeNow_Horizontal_Watermelon" transform="translate(0.000000, 0.000000)" fill="#FF004F" fill-rule="nonzero">
            <polygon id="Path" points="43.079447 0.903883046 43.079447 8.85890058 36.189191 8.85890058 36.189191 0.903883046 28.6511874 0.903883046 28.6511874 23.4459218 36.189191 23.4459218 36.189191 15.3617781 43.079447 15.3617781 43.079447 23.4459218 50.6153337 23.4459218 50.6153337 0.903883046"/>
            <path d="M77.6450354,16.6043527 L77.6450354,16.5387312 C77.6450354,14.2102269 76.9359,12.5442879 75.5832506,11.1937554 C74.0062182,9.61672289 71.461798,8.61546603 67.4694715,8.61546603 L56.4619964,8.61546603 L56.4619964,31.1596216 L63.9957664,31.1596216 L63.9957664,24.7202487 L65.6045512,24.7202487 L69.8572468,31.1596216 L78.4557783,31.1596216 L73.2039426,23.4924919 C75.9431104,22.1758285 77.649269,19.8938943 77.649269,16.6043527 M70.1472514,17.1504928 C70.1472514,18.5348945 69.0507376,19.3414037 67.2472051,19.3414037 L63.9915327,19.3414037 L63.9915327,14.9278296 L67.2747238,14.9278296 C69.0147516,14.9278296 70.1430178,15.636965 70.1430178,17.0848713 L70.1472514,17.1504928 Z" id="Shape"/>
            <polygon id="Path" points="7.54223722 8.52232586 7.54223722 15.9354369 0 15.9354369 0 23.3951181 7.54223722 23.3951181 7.54223722 31.1575048 15.6454323 31.1575048 15.6454323 23.3951181 23.1876695 23.3951181 23.1876695 15.9354369 15.6454323 15.9354369 15.6454323 8.52232586"/>
            <polygon id="Path" points="114.8376 24.9742674 114.8376 22.5293378 125.849309 22.5293378 125.849309 17.0848713 114.8376 17.0848713 114.8376 14.7987034 126.653701 14.7987034 126.653701 8.61758285 107.428723 8.61758285 107.428723 31.1575048 126.816696 31.1575048 126.816696 24.9742674"/>
            <polygon id="Path" points="101.783158 16.2593107 82.3973011 16.2593107 82.3973011 17.2626844 82.3973011 23.4459218 101.783158 23.4459218 101.783158 17.2626844"/>
            <polygon id="Path" points="82.3973011 0.903883046 82.3973011 7.08712046 82.3973011 8.08837732 101.783158 8.08837732 101.783158 7.08712046 101.783158 0.903883046"/>
            <path d="M231.35384,0.84884567 L227.839915,17.6310114 L223.477145,0.84884567 L214.995039,0.84884567 L210.634385,17.6310114 L207.12046,0.84884567 L195.306476,0.84884567 L198.058345,10.317391 C195.772177,4.17860687 189.840841,0 182.770656,0 C175.076007,0 168.729774,4.95336376 166.964345,11.9875637 C166.439373,3.74465833 161.974995,0 156.047893,0 C152.533968,0 149.746114,1.33359794 147.927763,3.81027982 L147.927763,0.846728848 L136.71919,0.846728848 L136.71919,31.1384534 L147.925647,31.1384534 L147.925647,15.5713435 C147.925647,12.6077926 149.320632,10.7852087 152.047099,10.7852087 C154.348085,10.7852087 155.802342,12.1166898 155.802342,14.8431567 L155.802342,31.142687 L167.010915,31.142687 L167.010915,20.1838989 C168.858901,27.1270755 175.234769,32 182.764305,32 C191.851822,32 199.063835,25.0928094 199.063835,16.0052921 C199.063548,14.848379 198.941511,13.6947082 198.699742,12.5633393 L204.099755,31.1405702 L215.490375,31.1405702 L219.247734,16.9028246 L223.002977,31.1405702 L234.393597,31.1405702 L243.178408,0.84884567 L231.35384,0.84884567 Z M182.764305,21.324866 C179.800754,21.324866 177.683932,19.1445393 177.683932,15.9947079 C177.683932,12.8448766 179.800754,10.662433 182.764305,10.662433 C185.727856,10.662433 187.844678,12.8448766 187.844678,15.9947079 C187.844678,19.1445393 185.727856,21.324866 182.764305,21.324866" id="Shape"/>
        </g>
    </g>
</svg>